<mxfile host="65bd71144e">
    <diagram id="Gd-35w-xlGY5v5Doc6jH" name="Page-1">
        <mxGraphModel dx="276" dy="705" grid="1" gridSize="10" guides="1" tooltips="1" connect="1" arrows="1" fold="1" page="1" pageScale="1" pageWidth="850" pageHeight="1100" math="0" shadow="0">
            <root>
                <mxCell id="0"/>
                <mxCell id="1" parent="0"/>
                <mxCell id="2" value="&lt;ol class=&quot;latin&quot; id=&quot;MLCUQLJ2MPE1E3HZG483&quot; style=&quot;box-sizing: border-box; line-height: 1.8; color: rgb(87, 87, 87); padding: 0px 0px 0px 40px; clear: left; margin: 6px 0px; list-style-type: lower-latin; font-size: 16px; font-style: normal; font-weight: 400; letter-spacing: normal; text-align: left; text-indent: 0px; text-transform: none; word-spacing: 0px; background-color: rgb(255, 255, 255);&quot;&gt;&lt;li id=&quot;LCKT2LWPYH4QKDZX5005&quot; style=&quot;box-sizing: border-box ; font-family: , &amp;quot;cambria&amp;quot; , &amp;quot;times new roman&amp;quot; , &amp;quot;times&amp;quot; , serif ; line-height: 1.6 ; color: rgb(87 , 87 , 87) ; margin: 0px 0px 10px ; padding: 0px ; list-style: lower-latin&quot;&gt;&lt;p id=&quot;MRYR9DX2C4F3UH1CW985&quot; style=&quot;box-sizing: border-box ; font-family: , &amp;quot;cambria&amp;quot; , &amp;quot;times new roman&amp;quot; , &amp;quot;times&amp;quot; , serif ; line-height: 1.6 ; color: rgb(87 , 87 , 87) ; margin: 0px ; padding: 0px&quot;&gt;reate a TicTacToe game. In this game, two players alternate placing Xs and Os into a grid until one player has three matching symbols in a row, either horizontally, vertically, or diagonally. Create a game that displays a three-by-three grid containing the digits 1 through 9, similar to the first window shown in&lt;span&gt;&amp;nbsp;&lt;/span&gt;&lt;a style=&quot;box-sizing: border-box ; color: rgb(0 , 129 , 188) ; text-decoration: none ; background-color: transparent ; overflow-wrap: break-word&quot;&gt;Figure 8-19&lt;/a&gt;. When the user chooses a position by typing a number, place an X in the appropriate spot. For example, after the user chooses 3, the screen looks like the second window in&lt;span&gt;&amp;nbsp;&lt;/span&gt;&lt;a style=&quot;box-sizing: border-box ; color: rgb(0 , 129 , 188) ; text-decoration: none ; background-color: transparent ; overflow-wrap: break-word&quot;&gt;Figure 8-19&lt;/a&gt;. Generate a random number for the position where the computer will place an O. Do not allow the player or the computer to place a symbol where one has already been placed. When either the player or computer has three symbols in a&lt;span&gt;&amp;nbsp;&lt;/span&gt;&lt;a name=&quot;PageEnd_364&quot; style=&quot;box-sizing: border-box ; color: rgb(0 , 129 , 188) ; text-decoration: none ; background-color: transparent ; overflow-wrap: break-word&quot;&gt;&lt;/a&gt;row, declare a winner. If all positions have been used and no one has three symbols in a row, declare a tie.&lt;/p&gt;&lt;/li&gt;&lt;li id=&quot;RBUFM8AXF8N2SYR2D332&quot; style=&quot;box-sizing: border-box ; font-family: , &amp;quot;cambria&amp;quot; , &amp;quot;times new roman&amp;quot; , &amp;quot;times&amp;quot; , serif ; line-height: 1.6 ; color: rgb(87 , 87 , 87) ; margin: 0px 0px 10px ; padding: 0px ; list-style: lower-latin&quot;&gt;&lt;p id=&quot;URFFK311YYKGS4LXS689&quot; style=&quot;box-sizing: border-box ; font-family: , &amp;quot;cambria&amp;quot; , &amp;quot;times new roman&amp;quot; , &amp;quot;times&amp;quot; , serif ; line-height: 1.6 ; color: rgb(87 , 87 , 87) ; margin: 0px ; padding: 0px&quot;&gt;In the TicTacToe game in&lt;span&gt;&amp;nbsp;&lt;/span&gt;&lt;a style=&quot;box-sizing: border-box ; color: rgb(0 , 129 , 188) ; text-decoration: none ; background-color: transparent ; overflow-wrap: break-word&quot;&gt;Exercise 3a&lt;/a&gt;, the computerâ€™s selection is chosen randomly. Improve the game so that when the computer has two Os in any row, column, or diagonal, it selects the winning position for its next move rather than selecting a position randomly.&lt;/p&gt;&lt;/li&gt;&lt;/ol&gt;" style="text;whiteSpace=wrap;html=1;" vertex="1" parent="1">
                    <mxGeometry x="110" y="90" width="550" height="480" as="geometry"/>
                </mxCell>
            </root>
        </mxGraphModel>
    </diagram>
</mxfile>